<svg xmlns="http://www.w3.org/2000/svg" viewBox="0 0 1280 720" width="1280" height="720">
  <!-- Night sky -->
  <rect x="0" y="0" width="1280" height="720" fill="#0D1B2A"/>
  <!-- Moon -->
  <circle cx="1050" cy="120" r="50" fill="#F5F5DC"/>
  <circle cx="1070" cy="110" r="45" fill="#0D1B2A"/>
  <!-- Stars -->
  <circle cx="100" cy="80" r="2" fill="#FFFFFF"/>
  <circle cx="250" cy="50" r="1.5" fill="#FFFFFF"/>
  <circle cx="400" cy="100" r="2" fill="#FFFFFF"/>
  <circle cx="550" cy="40" r="1.5" fill="#FFFFFF"/>
  <circle cx="700" cy="90" r="2" fill="#FFFFFF"/>
  <circle cx="850" cy="60" r="1.5" fill="#FFFFFF"/>
  <circle cx="150" cy="150" r="1.5" fill="#FFFFFF"/>
  <circle cx="320" cy="180" r="2" fill="#FFFFFF"/>
  <circle cx="480" cy="160" r="1.5" fill="#FFFFFF"/>
  <circle cx="620" cy="140" r="2" fill="#FFFFFF"/>
  <circle cx="780" cy="170" r="1.5" fill="#FFFFFF"/>
  <circle cx="920" cy="50" r="2" fill="#FFFFFF"/>
  <circle cx="200" cy="220" r="1" fill="#FFFFFF"/>
  <circle cx="450" cy="230" r="1" fill="#FFFFFF"/>
  <circle cx="680" cy="200" r="1.5" fill="#FFFFFF"/>
  <circle cx="1150" cy="180" r="1.5" fill="#FFFFFF"/>
  <circle cx="50" cy="250" r="1" fill="#FFFFFF"/>
  <circle cx="1200" cy="90" r="1.5" fill="#FFFFFF"/>
  <!-- City skyline -->
  <rect x="0" y="380" width="100" height="340" fill="#1B2838"/>
  <rect x="110" y="320" width="80" height="400" fill="#162636"/>
  <rect x="200" y="360" width="120" height="360" fill="#1B2838"/>
  <rect x="330" y="280" width="70" height="440" fill="#0F1E2E"/>
  <rect x="410" y="340" width="100" height="380" fill="#162636"/>
  <rect x="520" y="300" width="90" height="420" fill="#1B2838"/>
  <rect x="620" y="350" width="110" height="370" fill="#0F1E2E"/>
  <rect x="740" y="290" width="80" height="430" fill="#162636"/>
  <rect x="830" y="330" width="130" height="390" fill="#1B2838"/>
  <rect x="970" y="360" width="90" height="360" fill="#0F1E2E"/>
  <rect x="1070" y="310" width="100" height="410" fill="#162636"/>
  <rect x="1180" y="350" width="100" height="370" fill="#1B2838"/>
  <!-- Building windows (lit) -->
  <rect x="30" y="400" width="15" height="20" fill="#F0E68C" opacity="0.7"/>
  <rect x="55" y="430" width="15" height="20" fill="#F0E68C" opacity="0.5"/>
  <rect x="130" y="350" width="15" height="20" fill="#F0E68C" opacity="0.7"/>
  <rect x="155" y="400" width="15" height="20" fill="#F0E68C" opacity="0.5"/>
  <rect x="350" y="310" width="12" height="18" fill="#F0E68C" opacity="0.7"/>
  <rect x="370" y="360" width="12" height="18" fill="#F0E68C" opacity="0.5"/>
  <rect x="540" y="330" width="15" height="20" fill="#F0E68C" opacity="0.7"/>
  <rect x="575" y="380" width="15" height="20" fill="#F0E68C" opacity="0.5"/>
  <rect x="760" y="320" width="12" height="18" fill="#F0E68C" opacity="0.7"/>
  <rect x="785" y="370" width="12" height="18" fill="#F0E68C" opacity="0.5"/>
  <rect x="1090" y="340" width="15" height="20" fill="#F0E68C" opacity="0.7"/>
  <rect x="1120" y="390" width="15" height="20" fill="#F0E68C" opacity="0.5"/>
  <!-- Ground / street -->
  <rect x="0" y="620" width="1280" height="100" fill="#1A1A2E"/>
  <!-- Street lamp -->
  <rect x="200" y="450" width="6" height="170" fill="#333333"/>
  <circle cx="203" cy="445" r="12" fill="#FFD700" opacity="0.8"/>
  <circle cx="203" cy="445" r="25" fill="#FFD700" opacity="0.15"/>
  <rect x="900" y="450" width="6" height="170" fill="#333333"/>
  <circle cx="903" cy="445" r="12" fill="#FFD700" opacity="0.8"/>
  <circle cx="903" cy="445" r="25" fill="#FFD700" opacity="0.15"/>
</svg>
